<svg xmlns="http://www.w3.org/2000/svg" viewBox="0 0 64 64"><defs><style>.cls-1{fill:#e1cc33;}.cls-2{fill:#726dee;}.cls-3{fill:#fff;}</style></defs><g id="Layer_2" data-name="Layer 2"><g id="Layer_1-2" data-name="Layer 1"><circle class="cls-1" cx="32" cy="32" r="31.5"/><path d="M32,1A31,31,0,1,1,1,32,31,31,0,0,1,32,1m0-1A32,32,0,1,0,64,32,32,32,0,0,0,32,0Z"/><path class="cls-2" d="M31,63.5c0-2.27-.13-4.55-.26-6.76-.14-2.41-.28-4.89-.24-7.34,0-1.94.07-3.87.12-5.81.09-4.12.18-8.39.18-12.59,0-6.19-.08-12.47-.15-18.56,0-4-.09-7.95-.12-11.93H31a31.5,31.5,0,0,1,0,63Z"/><path d="M31.08,1a31,31,0,0,1,.46,62c0-2.12-.14-4.23-.26-6.29-.14-2.4-.28-4.87-.24-7.3,0-1.94.07-3.87.12-5.81.09-4.12.18-8.39.18-12.6,0-6.18-.08-12.47-.15-18.54,0-3.82-.09-7.64-.11-11.46M31,0l-.93,0c.07,10.33.26,20.65.27,31,0,6.14-.2,12.26-.3,18.39-.08,4.88.56,9.72.49,14.59L31,64A32,32,0,0,0,31,0Z"/><circle class="cls-3" cx="32" cy="32" r="18.7"/><path d="M32,13.8A18.2,18.2,0,1,1,13.8,32,18.21,18.21,0,0,1,32,13.8m0-1A19.2,19.2,0,1,0,51.2,32,19.2,19.2,0,0,0,32,12.8Z"/></g></g></svg>